<svg width="13" height="12" viewBox="0 0 13 12" fill="none" xmlns="http://www.w3.org/2000/svg">
<path d="M12.2523 4.9092L6.52507 4.9092L6.52507 7.3636L9.77107 7.3636C9.25107 9 7.97107 9.5456 6.49907 9.5456C5.92877 9.54635 5.3667 9.40952 4.86056 9.14672C4.35442 8.88392 3.91914 8.50291 3.59165 8.03601C3.26416 7.56911 3.05413 7.0301 2.97938 6.46472C2.90464 5.89933 2.96737 5.32426 3.16227 4.7883C3.35717 4.25234 3.67848 3.77129 4.09894 3.38599C4.5194 3.00069 5.0266 2.72249 5.5775 2.57501C6.1284 2.42753 6.70675 2.41511 7.26347 2.53882C7.8202 2.66252 8.33887 2.91869 8.77547 3.2856L10.5591 1.5868C9.84083 0.925234 8.97196 0.44897 8.02791 0.199349C7.08386 -0.0502707 6.09315 -0.0657027 5.14178 0.154393C4.19041 0.374489 3.30714 0.82346 2.56864 1.46233C1.83014 2.10121 1.25872 2.91067 0.904006 3.82046C0.549288 4.73025 0.421984 5.71287 0.533145 6.68302C0.644307 7.65317 0.990573 8.58153 1.54189 9.3875C2.0932 10.1935 2.8329 10.8527 3.69677 11.308C4.56064 11.7633 5.52258 12.0008 6.49907 12C9.80747 12 12.7979 9.818 12.2523 4.9092Z" fill="#C71610"/>
</svg>
