<svg width="13" height="14" viewBox="0 0 13 14" fill="none" xmlns="http://www.w3.org/2000/svg">
<path d="M12.8996 6.99999C12.8994 5.77696 12.5488 4.5796 11.8892 3.54965C11.2297 2.5197 10.2888 1.70029 9.17807 1.18844C8.0673 0.676594 6.83313 0.493732 5.62166 0.661506C4.4102 0.82928 3.27217 1.34066 2.3423 2.13512C1.41244 2.92957 0.729686 3.97383 0.374865 5.14426C0.0200438 6.31469 0.00801678 7.56227 0.340208 8.73933C0.672399 9.91638 1.3349 10.9736 2.24927 11.7858C3.16364 12.5981 4.2916 13.1313 5.49961 13.3224L5.49961 8.84999H3.87481L3.87481 6.99999L5.49961 6.99999L5.49961 5.58999C5.49961 3.98599 6.45521 3.09999 7.91681 3.09999C8.39681 3.10665 8.87569 3.14836 9.34961 3.22479V4.79999H8.54241C8.40486 4.78173 8.26496 4.79464 8.13308 4.83779C8.0012 4.88094 7.88072 4.95322 7.78056 5.04926C7.68041 5.1453 7.60316 5.26265 7.55452 5.3926C7.50589 5.52256 7.48712 5.6618 7.49961 5.79999L7.49961 6.99999L9.27481 6.99999L8.99081 8.84999H7.49961L7.49961 13.3224C9.00513 13.0842 10.3762 12.3166 11.3661 11.1575C12.3561 9.99851 12.8998 8.52423 12.8996 6.99999Z" fill="#335CA6"/>
</svg>
